<svg width="24" height="24" viewBox="0 0 24 24" fill="none" xmlns="http://www.w3.org/2000/svg">
<rect x="0.154297" width="23.2057" height="24" rx="2.4" fill="white"/>
<path d="M21.3543 12.7928V2.3999H2.1543V21.5999H21.3543V15.9985C21.309 15.9985 21.3543 12.7928 21.3543 12.7928Z" fill="#2E6FB7"/>
<path d="M19.0038 11.7225H20.4594V8.34692H18.8792V8.81701L18.5791 8.34692H17.2085V8.94728L16.9536 8.34692H14.4332C14.3483 8.34692 14.2633 8.39223 14.1784 8.39223C14.0934 8.39223 14.0481 8.43754 13.9631 8.47719C13.8782 8.51684 13.8329 8.5225 13.7479 8.56215V8.34692H6.51536L6.30014 8.90197L6.08492 8.34692H4.38014V8.94728L4.12527 8.34692H2.75465L2.1543 9.8025V11.7282H3.13978L3.30969 11.2581H3.64952L3.81943 11.7282H11.3465V11.2977L11.6467 11.7282H13.7423V11.4733C13.7876 11.5186 13.8725 11.5186 13.9122 11.5583C13.9518 11.5979 14.0424 11.6036 14.0821 11.6432C14.167 11.6885 14.252 11.6885 14.3369 11.6885H15.8775L16.0474 11.2184H16.3872L16.5571 11.6885H18.6527V11.2581L18.9925 11.7282L19.0038 11.7225ZM21.3543 15.9986V12.8326H9.59642L9.29624 13.263L8.99606 12.8326H5.57518V16.2082H8.99606L9.29624 15.7777L9.59642 16.2082H11.7373V15.4832H11.6523C11.9525 15.4832 12.2074 15.4379 12.4226 15.3529V16.2535H13.9631V15.823L14.2633 16.2535H20.635C20.8899 16.1685 21.1504 16.1232 21.36 15.9986H21.3543Z" fill="white"/>
<path d="M20.6293 15.183H19.4739V15.6531H20.584C21.0541 15.6531 21.3543 15.3529 21.3543 14.9281C21.3543 14.5034 21.0994 14.2881 20.669 14.2881H20.1536C20.0233 14.2881 19.9384 14.2032 19.9384 14.0729C19.9384 13.9427 20.0233 13.8577 20.1536 13.8577H21.1391L21.3543 13.3876H20.1989C19.7288 13.3876 19.4286 13.6878 19.4286 14.0729C19.4286 14.5034 19.6835 14.7129 20.1139 14.7129H20.6293C20.7596 14.7129 20.8446 14.7979 20.8446 14.9281C20.8899 15.0981 20.7992 15.183 20.6293 15.183ZM18.5338 15.183H17.3784V15.6531H18.4885C18.9585 15.6531 19.2587 15.3529 19.2587 14.9281C19.2587 14.5034 19.0039 14.2881 18.5734 14.2881H18.058C17.9277 14.2881 17.8428 14.2032 17.8428 14.0729C17.8428 13.9427 17.9277 13.8577 18.058 13.8577H19.0435L19.2587 13.3876H18.1033C17.6332 13.3876 17.3331 13.6878 17.3331 14.0729C17.3331 14.5034 17.5879 14.7129 18.0184 14.7129H18.5338C18.664 14.7129 18.749 14.7979 18.749 14.9281C18.7943 15.0981 18.664 15.183 18.5338 15.183ZM17.0385 13.8124V13.3423H15.2431V15.6078H17.0385V15.1377H15.7529V14.6676H16.9932V14.1975H15.7529V13.7671H17.0385V13.8124ZM14.1331 13.8124C14.3483 13.8124 14.4332 13.9427 14.4332 14.0673C14.4332 14.1919 14.3483 14.3221 14.1331 14.3221H13.4931V13.7671L14.1331 13.8124ZM13.4931 14.7979H13.7479L14.4332 15.6078H15.0732L14.303 14.7526C14.6881 14.6676 14.9033 14.4127 14.9033 14.0673C14.9033 13.6368 14.6031 13.3423 14.1331 13.3423H12.938V15.6078H13.4534L13.4987 14.7979H13.4931ZM12.1224 14.1126C12.1224 14.2825 12.0375 14.4127 11.8223 14.4127H11.1369V13.8124H11.7769C11.9922 13.8124 12.1168 13.9427 12.1168 14.1126H12.1224ZM10.6272 13.3423V15.6078H11.1426V14.8375H11.8279C12.298 14.8375 12.6378 14.5373 12.6378 14.0673C12.6378 13.6368 12.3377 13.297 11.8676 13.297L10.6272 13.3423ZM9.85695 15.6078H10.497L9.59642 14.4524L10.497 13.3423H9.85695L9.30191 14.0673L8.74686 13.3423H8.10686L9.00739 14.4524L8.10686 15.5625H8.74686L9.30191 14.8375L9.85695 15.6078ZM7.93129 13.8124V13.3423H6.13589V15.6078H7.93129V15.1377H6.64562V14.6676H7.88598V14.1975H6.64562V13.7671H7.93129V13.8124ZM18.3242 9.79116L19.2247 11.1618H19.8647V8.89629H19.3493V10.3915L19.2191 10.1763L18.4092 8.89062H17.7239V11.1561H18.2392V9.61558L18.3242 9.78549V9.79116ZM16.0984 9.74585L16.2683 9.27576L16.4382 9.74585L16.6534 10.2612H15.8831L16.0984 9.74585ZM16.9989 11.1561H17.5539L16.5685 8.89062H15.8831L14.8977 11.1561H15.4527L15.6679 10.686H16.778L16.9932 11.1561H16.9989ZM14.6031 11.1561L14.8184 10.686H14.6881C14.303 10.686 14.0877 10.4312 14.0877 10.046V10.0007C14.0877 9.61558 14.303 9.36071 14.6881 9.36071H15.2431V8.89062H14.6428C13.9575 8.89062 13.5723 9.36071 13.5723 10.0007V10.046C13.5723 10.7313 13.9575 11.1561 14.5975 11.1561H14.6031ZM12.6775 11.1561H13.1929V8.93027H12.6775V11.1561ZM11.5674 9.36071C11.7826 9.36071 11.8676 9.49098 11.8676 9.61558C11.8676 9.74018 11.7826 9.87045 11.5674 9.87045H10.9274V9.3154L11.5674 9.36071ZM10.9274 10.3462H11.1823L11.8676 11.1561H12.5076L11.7373 10.3009C12.1224 10.2159 12.3377 9.96107 12.3377 9.61558C12.3377 9.18514 12.0375 8.89062 11.5674 8.89062H10.3723V11.1561H10.8877L10.9331 10.3462H10.9274ZM9.98722 9.36071V8.89062H8.19182V11.1561H9.98722V10.686H8.70155V10.2159H9.94191V9.74585H8.70155V9.3154H9.98722V9.36071ZM6.09624 11.1561H6.56633L7.20633 9.3154V11.1561H7.72173V8.89062H6.86651L6.35111 10.4312L5.83571 8.89062H4.98049V11.1561H5.49589V9.3154L6.09624 11.1561ZM3.31536 9.74585L3.48527 9.27576L3.65518 9.74585L3.8704 10.2612H3.09447L3.30969 9.74585H3.31536ZM4.21589 11.1561H4.77093L3.78545 8.89062H3.13978L2.1543 11.1674H2.70934L2.92456 10.6974H4.03465L4.20456 11.1674L4.21589 11.1561Z" fill="#2E6FB7"/>
</svg>
