<svg width="24" height="16" viewBox="0 0 24 16" fill="none" xmlns="http://www.w3.org/2000/svg">
<path d="M21.8525 0H2.14899C2.06634 0 1.98514 0 1.90248 0C1.83288 0 1.76473 0.00145006 1.69512 0.00290013C1.54577 0.00725031 1.39351 0.0159507 1.24415 0.0435019C1.09335 0.0710531 0.952692 0.114555 0.814936 0.184158C0.68008 0.253761 0.556824 0.343665 0.44952 0.44952C0.343665 0.556824 0.253761 0.68008 0.184158 0.814935C0.114555 0.952691 0.0710531 1.09335 0.0435019 1.24415C0.0159507 1.39351 0.00725032 1.54432 0.00290013 1.69512C0.00145006 1.76473 0.00145006 1.83433 0 1.90393C0 1.98659 0 2.06779 0 2.15044V13.2173C0 13.3 0 13.3812 0 13.4638C0 13.5334 0.00145006 13.6016 0.00290013 13.6712C0.00725032 13.822 0.0159507 13.9728 0.0435019 14.1222C0.0710531 14.273 0.114555 14.4136 0.184158 14.5514C0.252311 14.6862 0.342215 14.8095 0.44952 14.9168C0.556824 15.0241 0.68008 15.114 0.814936 15.1822C0.952692 15.2518 1.09335 15.2967 1.24415 15.3243C1.39351 15.3504 1.54432 15.3605 1.69512 15.3634C1.76473 15.3649 1.83288 15.3663 1.90248 15.3663C1.98369 15.3663 2.06634 15.3663 2.14899 15.3663H21.8525C21.9337 15.3663 22.0163 15.3663 22.099 15.3663C22.1686 15.3663 22.2367 15.3649 22.3063 15.3634C22.4571 15.3591 22.6079 15.3504 22.7573 15.3243C22.9081 15.2967 23.0488 15.2532 23.1865 15.1822C23.3214 15.114 23.4446 15.0241 23.5519 14.9168C23.6592 14.8095 23.7491 14.6862 23.8173 14.5514C23.8869 14.4136 23.9318 14.273 23.9579 14.1222C23.9855 13.9728 23.9942 13.822 23.9971 13.6712C23.9986 13.6016 24 13.5334 24 13.4638C24 13.3812 24 13.3 24 13.2173V2.14899C24 2.06634 24 1.98514 24 1.90248C24 1.83288 23.9986 1.76473 23.9971 1.69512C23.9928 1.54432 23.984 1.39206 23.9579 1.24415C23.9304 1.09335 23.8869 0.952691 23.8173 0.814935C23.7491 0.68008 23.6592 0.556824 23.5519 0.44952C23.4446 0.342215 23.3214 0.252311 23.1865 0.184158C23.0488 0.114555 22.9081 0.069603 22.7573 0.0420518C22.6079 0.0159507 22.4557 0.00580025 22.3063 0.00290013C22.2367 0.00145006 22.1686 0 22.099 0C22.0163 0 21.9337 0 21.8525 0Z" fill="black"/>
<path d="M21.8527 0.511963H22.0948C22.1601 0.511963 22.2268 0.513413 22.292 0.514863C22.4066 0.517763 22.5414 0.523563 22.6661 0.546764C22.7749 0.567065 22.8663 0.596067 22.9533 0.641019C23.0403 0.68452 23.1186 0.742523 23.1882 0.812126C23.2578 0.881729 23.3158 0.961483 23.3593 1.04849C23.4042 1.13549 23.4332 1.22684 23.4521 1.3356C23.4738 1.45885 23.4811 1.59371 23.484 1.70972C23.4854 1.77497 23.4869 1.84022 23.4869 1.90692C23.4869 1.98813 23.4869 2.06788 23.4869 2.14908V13.216C23.4869 13.2972 23.4869 13.3769 23.4869 13.4596C23.4869 13.5248 23.4854 13.5901 23.484 13.6553C23.4811 13.7713 23.4753 13.9048 23.4521 14.0309C23.4332 14.1397 23.4028 14.2296 23.3593 14.3166C23.3143 14.4036 23.2578 14.4833 23.1882 14.5529C23.1186 14.6225 23.0403 14.6805 22.9518 14.724C22.8648 14.769 22.7735 14.798 22.6661 14.8183C22.5385 14.8415 22.3979 14.8473 22.2935 14.8502C22.2268 14.8516 22.1615 14.8531 22.0934 14.8531C22.0122 14.8531 21.9324 14.8531 21.8512 14.8531H2.14921C2.14776 14.8531 2.14776 14.8531 2.14631 14.8531C2.06655 14.8531 1.9868 14.8531 1.9056 14.8531C1.83889 14.8531 1.77364 14.8516 1.70984 14.8502C1.60253 14.8473 1.46188 14.8415 1.33572 14.8183C1.22697 14.7994 1.13561 14.769 1.04716 14.724C0.960154 14.6805 0.881851 14.6225 0.812248 14.5529C0.742645 14.4833 0.686093 14.405 0.641141 14.318C0.596189 14.231 0.567187 14.1397 0.546886 14.0295C0.523685 13.9048 0.517885 13.7699 0.514985 13.6553C0.513535 13.5901 0.512085 13.5248 0.512085 13.4596V13.2667V13.216V2.14908V2.09833V1.90547C0.512085 1.84022 0.513535 1.77497 0.514985 1.70827C0.519335 1.59516 0.525136 1.46175 0.548337 1.3356C0.567187 1.22684 0.597639 1.13549 0.642591 1.04849C0.686093 0.961483 0.744095 0.883179 0.813698 0.813576C0.883301 0.743973 0.961605 0.687421 1.04861 0.642469C1.13561 0.597517 1.22697 0.568515 1.33572 0.548214C1.46043 0.525013 1.59528 0.519213 1.70984 0.516313C1.77509 0.514863 1.84179 0.513413 1.9056 0.513413H2.14921H21.8527" fill="white"/>
<path d="M6.55244 5.16799C6.75835 4.91133 6.89756 4.56622 6.86131 4.2124C6.56114 4.2269 6.19283 4.41106 5.98112 4.66772C5.78971 4.88813 5.6215 5.24775 5.66501 5.58561C6.00142 5.61606 6.33928 5.41741 6.55244 5.16799Z" fill="black"/>
<path d="M6.85721 5.65208C6.36708 5.62308 5.94947 5.93049 5.71601 5.93049C5.4811 5.93049 5.12293 5.66658 4.73576 5.67383C4.23114 5.68108 3.76277 5.96674 3.50611 6.42061C2.97974 7.32835 3.3669 8.67546 3.87878 9.41644C4.12819 9.78186 4.4269 10.185 4.82277 10.1705C5.19543 10.156 5.34189 9.92831 5.79576 9.92831C6.24963 9.92831 6.38159 10.1705 6.776 10.1632C7.18637 10.156 7.44158 9.79636 7.69099 9.43094C7.97666 9.01332 8.09266 8.61166 8.10136 8.58845C8.09411 8.5812 7.31108 8.28104 7.30383 7.38055C7.29658 6.62652 7.91865 6.26835 7.94765 6.24515C7.59529 5.72603 7.04716 5.66658 6.85721 5.65208Z" fill="black"/>
<path d="M11.1262 4.63135C12.192 4.63135 12.9345 5.36653 12.9345 6.43523C12.9345 7.50827 12.1775 8.24781 11.1001 8.24781H9.91978V10.1242H9.06714V4.63135H11.1262ZM9.91978 7.53293H10.8986C11.641 7.53293 12.063 7.13271 12.063 6.44103C12.063 5.7479 11.641 5.35203 10.9015 5.35203H9.91978V7.53293Z" fill="black"/>
<path d="M13.1576 8.98736C13.1576 8.28698 13.6941 7.85631 14.6468 7.80266L15.7431 7.7374V7.42854C15.7431 6.98337 15.4429 6.71656 14.9397 6.71656C14.4641 6.71656 14.1668 6.94422 14.0943 7.30239H13.3171C13.3621 6.5788 13.9798 6.04663 14.9687 6.04663C15.9388 6.04663 16.5594 6.55995 16.5594 7.36329V10.1228H15.7721V9.46443H15.7532C15.5212 9.9096 15.0151 10.1909 14.4888 10.1909C13.7057 10.1938 13.1576 9.70659 13.1576 8.98736ZM15.7431 8.62484V8.30873L14.757 8.36963C14.2654 8.40443 13.9885 8.62049 13.9885 8.96416C13.9885 9.31507 14.2785 9.54273 14.7193 9.54273C15.2935 9.54273 15.7431 9.14687 15.7431 8.62484Z" fill="black"/>
<path d="M17.3052 11.5987V10.9331C17.3661 10.9476 17.5024 10.9476 17.572 10.9476C17.9533 10.9476 18.1578 10.7881 18.284 10.3763C18.284 10.369 18.3565 10.1327 18.3565 10.1283L16.9093 6.1189H17.7996L18.8118 9.37719H18.8263L19.8384 6.1189H20.707L19.2077 10.3328C18.8654 11.3043 18.4696 11.6161 17.6387 11.6161C17.572 11.6175 17.3661 11.6103 17.3052 11.5987Z" fill="black"/>
</svg>
