<svg width="16" height="16" viewBox="0 0 16 16" fill="none" xmlns="http://www.w3.org/2000/svg">
<g clip-path="url(#clip0_2386_8828)">
<path d="M8 0C3.6 0 0 3.6 0 8C0 12.4 3.6 16 8 16C12.4 16 16 12.4 16 8C16 3.6 12.4 0 8 0ZM12.7333 5.46667L7.4 11.3333C7.26667 11.4667 7.13333 11.5333 7 11.5333C6.86667 11.5333 6.73333 11.4667 6.66667 11.4L3.33333 8.66667C3.06667 8.46667 3.06667 8.13333 3.26667 7.86667C3.46667 7.6 3.8 7.6 4.06667 7.8L7 10.2L11.9333 4.66667C12.1333 4.4 12.5333 4.4 12.7333 4.6C12.9333 4.86667 13 5.2 12.7333 5.46667Z" fill="#00AAEB"/>
</g>
<defs>
<clipPath id="clip0_2386_8828">
<rect width="16" height="16" fill="white"/>
</clipPath>
</defs>
</svg>
