<svg width="30" height="24" viewBox="0 0 30 24" fill="none" xmlns="http://www.w3.org/2000/svg">
<rect x="0.209961" width="28.9443" height="24" rx="2.4" fill="white"/>
<path d="M27.1543 17.7307C27.1543 19.8653 25.4196 21.5945 23.2851 21.5999H2.20996V6.26908C2.20996 4.13455 3.94461 2.3999 6.07914 2.3999H27.1543V17.7307Z" fill="white"/>
<path d="M20.2969 13.7969H22.118C22.4476 13.7158 22.6692 13.4132 22.6584 13.0781C22.6584 12.7431 22.4422 12.4513 22.118 12.3594C22.0531 12.3486 21.9829 12.3486 21.918 12.3594H20.2969V13.7969Z" fill="url(#paint0_linear_2414_9639)"/>
<path d="M21.7183 3.69702C20.189 3.69702 18.9461 4.93991 18.9461 6.46921V9.34948H22.8585C22.9503 9.34408 23.0422 9.34408 23.1341 9.34948C24.0203 9.39271 24.6742 9.85205 24.6742 10.6464C24.6634 11.3435 24.1068 11.9109 23.4097 11.9271V11.9596C24.3067 12.019 24.993 12.4999 24.993 13.2997C24.993 14.0995 24.2311 14.6885 23.2259 14.6885H18.9028V20.3194H22.972C24.5013 20.3194 25.7441 19.0765 25.7441 17.5472V3.69702H21.7183Z" fill="url(#paint1_linear_2414_9639)"/>
<path d="M22.4638 10.8463C22.4692 10.522 22.2423 10.2464 21.9234 10.1924H20.2969V11.5325H21.7451C21.7938 11.5434 21.8478 11.5434 21.8964 11.5325C22.2153 11.4785 22.4422 11.2029 22.4368 10.8787L22.4638 10.8463Z" fill="url(#paint2_linear_2414_9639)"/>
<path d="M6.38743 3.69702C4.85813 3.69702 3.61523 4.93991 3.61523 6.46921V13.3105C4.35557 13.6996 5.17155 13.9158 6.00916 13.9374C6.73868 14.0347 7.40336 13.5213 7.50063 12.7918C7.51144 12.7161 7.51144 12.6404 7.51144 12.5648V9.32246H9.88915V12.5378C9.88915 13.7861 9.11099 14.8074 6.47389 14.8074C5.512 14.8074 4.55551 14.6885 3.62604 14.4562V20.3032H7.69517C9.22447 20.3032 10.4674 19.0603 10.4674 17.531V3.69702H6.38743Z" fill="url(#paint3_linear_2414_9639)"/>
<path d="M14.0499 3.69702C12.526 3.70783 11.2939 4.94532 11.2939 6.46921V10.0952C11.9965 9.50079 13.2123 9.12252 15.1793 9.21439C15.9089 9.26302 16.633 9.3765 17.3409 9.54943V10.7221C16.6924 10.3762 15.9737 10.1655 15.2388 10.1114C13.7473 10.0034 12.8449 10.7383 12.8449 12.0136C12.8449 13.2889 13.7419 14.0401 15.2388 13.9158C15.9737 13.8563 16.687 13.6456 17.3409 13.3051V14.4778C16.633 14.6561 15.9089 14.7642 15.1793 14.8128C13.2123 14.9047 11.9965 14.521 11.2939 13.932V20.3356H15.3469C16.8762 20.3356 18.1191 19.0927 18.1191 17.5634V3.69702H14.0499Z" fill="url(#paint4_linear_2414_9639)"/>
<defs>
<linearGradient id="paint0_linear_2414_9639" x1="20.5171" y1="13.0711" x2="27.3314" y2="13.0711" gradientUnits="userSpaceOnUse">
<stop stop-color="#057B40"/>
<stop offset="0.23" stop-color="#098143"/>
<stop offset="0.74" stop-color="#419A47"/>
<stop offset="1" stop-color="#5CA645"/>
</linearGradient>
<linearGradient id="paint1_linear_2414_9639" x1="18.8342" y1="11.7268" x2="25.6684" y2="11.7268" gradientUnits="userSpaceOnUse">
<stop stop-color="#057B40"/>
<stop offset="0.23" stop-color="#098143"/>
<stop offset="0.74" stop-color="#419A47"/>
<stop offset="1" stop-color="#5CA645"/>
</linearGradient>
<linearGradient id="paint2_linear_2414_9639" x1="18.9805" y1="10.9004" x2="25.8247" y2="10.9004" gradientUnits="userSpaceOnUse">
<stop stop-color="#057B40"/>
<stop offset="0.23" stop-color="#098143"/>
<stop offset="0.74" stop-color="#419A47"/>
<stop offset="1" stop-color="#5CA645"/>
</linearGradient>
<linearGradient id="paint3_linear_2414_9639" x1="3.24172" y1="12.4498" x2="10.4556" y2="12.4498" gradientUnits="userSpaceOnUse">
<stop stop-color="#29306C"/>
<stop offset="0.48" stop-color="#045084"/>
<stop offset="0.83" stop-color="#0268A3"/>
<stop offset="1" stop-color="#1172AB"/>
</linearGradient>
<linearGradient id="paint4_linear_2414_9639" x1="10.9263" y1="11.9254" x2="17.7605" y2="11.9254" gradientUnits="userSpaceOnUse">
<stop stop-color="#6E2F32"/>
<stop offset="0.17" stop-color="#812833"/>
<stop offset="0.57" stop-color="#B02136"/>
<stop offset="0.86" stop-color="#CE1F3B"/>
<stop offset="1" stop-color="#D81E3E"/>
</linearGradient>
</defs>
</svg>
