<svg width="36" height="24" viewBox="0 0 36 24" fill="none" xmlns="http://www.w3.org/2000/svg">
<rect x="0.630859" width="34.5793" height="24" rx="2.4" fill="white"/>
<path d="M22.0543 4.45264H13.7856V19.5475H22.0543V4.45264Z" fill="#F26522"/>
<path d="M14.311 11.9994C14.311 8.93704 15.7227 6.21035 17.92 4.45245C16.3126 3.1671 14.285 2.3999 12.0804 2.3999C6.86129 2.3999 2.63086 6.6984 2.63086 11.9994C2.63086 17.3005 6.86129 21.5999 12.0804 21.5999C14.285 21.5999 16.3126 20.8327 17.92 19.5473C15.7227 17.7895 14.311 15.0618 14.311 12.0004" fill="#E51B24"/>
<path d="M33.2101 11.9994C33.2101 17.3014 28.9796 21.599 23.7605 21.599C21.556 21.599 19.5283 20.8318 17.9209 19.5464C20.1183 17.7895 21.5299 15.0609 21.5299 11.9994C21.5299 8.93795 20.1192 6.21034 17.9209 4.45245C19.5283 3.1671 21.556 2.3999 23.7605 2.3999C28.9796 2.3999 33.2101 6.69748 33.2101 11.9994ZM32.3085 17.9482V17.6389H32.4315V17.576H32.119V17.6389H32.242V17.9482H32.3094H32.3085ZM32.9146 17.9482V17.576H32.8186L32.709 17.8323L32.5994 17.576H32.5034V17.9482H32.5707V17.6672L32.674 17.9099H32.744L32.8473 17.6663V17.9482H32.9155H32.9146Z" fill="#F99F1C"/>
</svg>
