<svg width="67" height="18" viewBox="0 0 67 18" fill="none" xmlns="http://www.w3.org/2000/svg">
<g clip-path="url(#clip0_2414_9655)">
<path d="M60.6668 4.32422L56.1621 8.63883H61.3467L65.8609 4.32422H60.6668Z" fill="#009ADA"/>
<path d="M61.3467 8.63892L65.5776 13.7047H60.3646L56.1621 8.63892H61.3467Z" fill="#A5CD39"/>
<path d="M61.3467 0H56.1621V8.63884H61.3467V0Z" fill="#0B3F7E"/>
<path d="M58.7496 15.573H53.5649L56.162 8.64844H61.3561L58.7496 15.573Z" fill="#009ADA"/>
<path d="M56.1619 8.63892L50.8828 13.7047H56.0674L61.3465 8.63892H56.1619Z" fill="#0B3F7E"/>
<path d="M61.3466 8.63884L56.823 3.22632H51.6006L56.1619 8.63884H61.3466Z" fill="#A5CD39"/>
<path d="M6.64842 3.03369C5.09964 3.03369 3.0409 3.51523 1.6621 3.99677L0 13.7046H3.00312L4.30636 6.03851C4.30636 6.03851 5.1563 5.72069 6.11012 5.73995C7.0545 5.75921 7.60224 6.21186 7.60224 7.02085C7.60224 7.14605 7.60224 7.31941 7.55502 7.5987L6.50676 13.7046H9.50988L10.5581 7.52165C10.6337 7.02085 10.6715 6.53931 10.6715 6.16371C10.6715 3.99677 9.42489 3.03369 6.63897 3.03369" fill="#0B3F7E"/>
<path d="M26.3953 3.03369C25.0354 3.03369 23.5716 3.39003 22.2306 3.96788L19.813 18H22.8161L23.5999 13.5217C23.5999 13.5217 24.5727 13.8298 25.4887 13.8491C29.2473 13.9261 31.1361 11.6244 31.2305 7.88762C31.3155 4.83465 29.6345 3.03369 26.3859 3.03369M25.3565 11.3547C24.5915 11.3258 24.0155 11.0465 24.0155 11.0465L24.8749 6.07703C24.8749 6.07703 25.5265 5.73995 26.3009 5.73995C27.6985 5.73995 28.4163 6.52005 28.2557 8.01283C28.0385 10.016 27.3302 11.4221 25.3565 11.3451" fill="#0B3F7E"/>
<path d="M49.4381 10.3531C49.4381 8.73514 48.5409 7.83947 46.2461 7.16531C45.6417 7.00159 45.1506 6.80897 45.1506 6.24075C45.1506 5.9422 45.3111 5.43177 46.3877 5.43177C47.4643 5.43177 48.437 5.83626 49.287 6.60673L49.7591 4.0353C48.9092 3.37077 47.7759 3.03369 46.3972 3.03369C44.3573 3.03369 42.1758 3.96788 42.1758 6.57783C42.1758 8.4751 43.3752 9.18779 45.1695 9.66933C46.0477 9.9101 46.4349 10.1027 46.4349 10.642C46.4349 11.2103 45.9722 11.5473 45.1506 11.5473C44.0268 11.5473 42.9502 11.0947 41.7697 10.1316L41.3164 12.7319C42.2041 13.5024 43.6018 13.9454 45.1789 13.9454C47.8515 13.9454 49.4475 12.6067 49.4475 10.3531" fill="#0B3F7E"/>
<path d="M19.8413 4.20865C19.1708 3.42855 17.792 3.03369 16.0166 3.03369C14.9966 3.03369 13.599 3.33225 12.5035 3.66933L12.1257 6.08666C13.1173 5.80737 14.345 5.5666 15.11 5.5666C15.8749 5.5666 16.8193 5.5666 17.2159 6.02888C17.3765 6.22149 17.4426 6.47189 17.4048 6.78008C17.3859 6.89565 17.3387 7.25199 17.3387 7.25199H16.0827C13.8067 7.25199 11.0869 7.92615 11.0869 10.6806C11.0869 13.435 13.8256 13.9358 15.4972 13.9358C16.6682 13.9358 17.8675 13.7817 19.2463 13.435L20.304 7.23273C20.4079 6.61636 20.6629 5.14284 19.8602 4.19902M16.5737 11.6918C16.5737 11.6918 16.196 11.8266 15.4972 11.817C14.5433 11.7977 14.0523 11.1814 14.0523 10.4591C14.0523 9.84268 14.4017 9.0048 16.0638 9.0048H17.0554L16.5737 11.6918Z" fill="#0B3F7E"/>
<path d="M40.5138 4.20865C39.8433 3.42855 38.4645 3.03369 36.6891 3.03369C35.6692 3.03369 34.2715 3.33225 33.176 3.66933L32.7983 6.08666C33.7899 5.80737 35.0175 5.5666 35.7825 5.5666C36.5474 5.5666 37.4918 5.5666 37.8885 6.02888C38.049 6.22149 38.1151 6.47189 38.0679 6.78008C38.049 6.89565 38.0018 7.25199 38.0018 7.25199H36.7458C34.4698 7.25199 31.75 7.92615 31.75 10.6806C31.75 13.435 34.4887 13.9358 36.1508 13.9358C37.3313 13.9358 38.5212 13.7817 39.9 13.435L40.9577 7.23273C41.0616 6.61636 41.3165 5.14284 40.5044 4.19902M37.2179 11.6918C37.2179 11.6918 36.8402 11.8266 36.1414 11.817C35.1875 11.7977 34.6965 11.1814 34.6965 10.4591C34.6965 9.84268 35.0459 9.0048 36.708 9.0048H37.6996L37.2179 11.6918Z" fill="#0B3F7E"/>
<path d="M66.0024 6.88604C65.7946 6.88604 65.6152 6.80899 65.4736 6.66453C65.3319 6.52007 65.2563 6.33708 65.2563 6.1252C65.2563 5.91332 65.3319 5.72071 65.4641 5.57625C65.6058 5.43178 65.7852 5.35474 66.0024 5.35474C66.2196 5.35474 66.3896 5.43178 66.5313 5.57625C66.6729 5.72071 66.7485 5.90369 66.7485 6.11557C66.7485 6.32745 66.6729 6.5008 66.5313 6.6549C66.3896 6.79936 66.2102 6.87641 66.0024 6.87641M65.3791 6.11557C65.3791 6.28893 65.4358 6.44302 65.5585 6.56822C65.6813 6.69342 65.823 6.75121 66.0024 6.75121C66.1818 6.75121 66.3235 6.68379 66.4463 6.56822C66.569 6.44302 66.6257 6.29856 66.6257 6.11557C66.6257 5.95185 66.569 5.80738 66.4557 5.67255C66.3424 5.53772 66.1913 5.47031 66.0024 5.47031C65.8324 5.47031 65.6813 5.53772 65.5585 5.66292C65.4358 5.78812 65.3791 5.93259 65.3791 6.11557Z" fill="#0B3F7E"/>
<path d="M65.6719 5.72081H66.0402C66.0968 5.72081 66.1441 5.72081 66.1913 5.7497C66.2668 5.78823 66.3046 5.84601 66.3046 5.94232C66.3046 5.99048 66.2952 6.029 66.2763 6.05789C66.2574 6.08678 66.2291 6.11568 66.1913 6.13494C66.2196 6.14457 66.2479 6.16383 66.2668 6.18309C66.2857 6.20235 66.2952 6.24088 66.2952 6.28903V6.39497C66.2952 6.39497 66.2952 6.45275 66.3046 6.46239C66.3046 6.49128 66.3235 6.50091 66.3424 6.51054V6.5298H66.2102C66.2102 6.5298 66.2102 6.51054 66.2102 6.50091C66.2102 6.49128 66.2102 6.47202 66.2102 6.43349V6.29866C66.2102 6.24088 66.1818 6.21198 66.1441 6.19272C66.1252 6.19272 66.0968 6.18309 66.0496 6.18309H65.8135V6.5298H65.7002V5.71118L65.6719 5.72081ZM66.0213 6.09641C66.0685 6.09641 66.1063 6.08678 66.1346 6.06752C66.1629 6.04826 66.1724 6.00974 66.1724 5.96158C66.1724 5.9038 66.1535 5.86528 66.1157 5.84601C66.0968 5.83638 66.0685 5.82675 66.0307 5.82675H65.7758V6.10605H66.0213V6.09641Z" fill="#0B3F7E"/>
</g>
<defs>
<clipPath id="clip0_2414_9655">
<rect width="66.7486" height="18" fill="white"/>
</clipPath>
</defs>
</svg>
