<svg width="24" height="24" viewBox="0 0 24 24" fill="none" xmlns="http://www.w3.org/2000/svg">
<path d="M0 8C0 5.19974 0 3.79961 0.544967 2.73005C1.02433 1.78924 1.78924 1.02433 2.73005 0.544967C3.79961 0 5.19974 0 8 0H16C18.8003 0 20.2004 0 21.27 0.544967C22.2108 1.02433 22.9757 1.78924 23.455 2.73005C24 3.79961 24 5.19974 24 8V16C24 18.8003 24 20.2004 23.455 21.27C22.9757 22.2108 22.2108 22.9757 21.27 23.455C20.2004 24 18.8003 24 16 24H8C5.19974 24 3.79961 24 2.73005 23.455C1.78924 22.9757 1.02433 22.2108 0.544967 21.27C0 20.2004 0 18.8003 0 16V8Z" fill="#005194"/>
<mask id="mask0_2647_7269" style="mask-type:alpha" maskUnits="userSpaceOnUse" x="0" y="0" width="24" height="24">
<path d="M0 8C0 5.19974 0 3.79961 0.544967 2.73005C1.02433 1.78924 1.78924 1.02433 2.73005 0.544967C3.79961 0 5.19974 0 8 0H16C18.8003 0 20.2004 0 21.27 0.544967C22.2108 1.02433 22.9757 1.78924 23.455 2.73005C24 3.79961 24 5.19974 24 8V16C24 18.8003 24 20.2004 23.455 21.27C22.9757 22.2108 22.2108 22.9757 21.27 23.455C20.2004 24 18.8003 24 16 24H8C5.19974 24 3.79961 24 2.73005 23.455C1.78924 22.9757 1.02433 22.2108 0.544967 21.27C0 20.2004 0 18.8003 0 16V8Z" fill="#D9D9D9"/>
</mask>
<g mask="url(#mask0_2647_7269)">
<path d="M15.751 10.8926C15.051 10.8926 14.566 11.1876 14.301 11.7726C14.141 12.1726 14.061 12.7776 14.061 13.5726C14.061 14.3676 14.141 14.9776 14.301 15.3876C14.541 15.9976 14.996 16.3076 15.651 16.3076C16.366 16.3076 16.856 16.0076 17.111 15.4126C17.276 15.0276 17.356 14.4226 17.356 13.5726C17.356 12.7426 17.286 12.1376 17.146 11.7726C16.901 11.1876 16.431 10.8926 15.751 10.8926ZM15.046 12.3826C15.136 11.9676 15.361 11.7626 15.726 11.7626C16.066 11.7626 16.276 11.9726 16.366 12.4026C16.391 12.5276 16.416 12.8326 16.416 13.5676C16.416 14.3176 16.391 14.6376 16.366 14.7676C16.221 15.3676 15.921 15.4376 15.706 15.4376C15.231 15.4376 14.991 14.8076 14.991 13.5726C14.996 12.7776 15.026 12.4876 15.046 12.3826Z" fill="white"/>
<path d="M3.29117 8.37769H1.68617C1.62617 8.37769 1.57617 8.42769 1.57617 8.48769V15.8627C1.57617 15.8777 1.58117 15.8927 1.58617 15.9027C1.67117 16.1177 1.83617 16.2277 2.06117 16.2277C2.28617 16.2277 2.45617 16.1127 2.53617 15.9027C2.54117 15.8877 2.54617 15.8777 2.54617 15.8627V12.9277H3.22617C3.74117 12.9277 4.16117 12.7327 4.48117 12.3477C4.79117 11.9777 4.94617 11.5077 4.94617 10.9477V10.3427C4.93617 9.03769 4.38117 8.37769 3.29117 8.37769ZM3.21617 12.0727H2.54117V9.22768H3.31617C3.48117 9.22768 3.97117 9.22769 3.97117 10.3377V10.9427C3.97117 12.0727 3.40617 12.0727 3.21617 12.0727Z" fill="white"/>
<path d="M12.466 11.0876C12.236 11.1076 12.081 11.2176 12.001 11.4126C11.996 11.4276 11.991 11.4426 11.991 11.4526V15.1026C11.541 15.3276 11.291 15.3726 11.166 15.3726C11.051 15.3726 10.696 15.3726 10.696 14.3476V11.4526C10.696 11.4376 10.691 11.4226 10.686 11.4076C10.566 11.1426 10.366 11.0876 10.211 11.0876C9.97596 11.1076 9.82596 11.2176 9.74096 11.4126C9.73596 11.4276 9.73096 11.4426 9.73096 11.4576V14.3526C9.73096 15.5976 10.166 16.2276 11.021 16.2276C11.311 16.2276 11.631 16.1476 11.991 15.9776V17.1176C11.991 17.4376 11.941 17.6576 11.831 17.7876C11.686 17.9626 11.616 18.0976 11.616 18.2126C11.631 18.4376 11.741 18.5976 11.941 18.6826C11.956 18.6876 11.971 18.6926 11.981 18.6926C12.276 18.6926 12.526 18.5226 12.721 18.1876C12.876 17.9326 12.951 17.6376 12.951 17.3026V11.4526C12.951 11.4376 12.946 11.4226 12.941 11.4076C12.826 11.1426 12.626 11.0876 12.466 11.0876Z" fill="white"/>
<path d="M21.4361 11.7677C21.1911 11.1827 20.7161 10.8877 20.0311 10.8877C19.3361 10.8877 18.8561 11.1827 18.5911 11.7677C18.4311 12.1577 18.3511 12.7627 18.3511 13.5677C18.3511 14.3727 18.4311 14.9827 18.5911 15.3827C18.8361 15.9927 19.2861 16.3027 19.9411 16.3027C20.6561 16.3027 21.1461 16.0027 21.3961 15.4077C21.5611 15.0277 21.6411 14.4277 21.6411 13.5677C21.6361 12.7177 21.5711 12.1327 21.4361 11.7677ZM19.3311 12.3827C19.4211 11.9677 19.6411 11.7627 20.0111 11.7627C20.3461 11.7627 20.5561 11.9727 20.6461 12.4077C20.6861 12.5727 20.7061 12.9427 20.7061 13.5677C20.7061 14.2077 20.6861 14.5877 20.6461 14.7677C20.5461 15.2177 20.3361 15.4327 19.9911 15.4327C19.5161 15.4327 19.2761 14.8027 19.2761 13.5677C19.2761 12.7877 19.3111 12.4877 19.3311 12.3827Z" fill="white"/>
<path d="M6.29094 10.8728C5.82094 10.8728 5.74594 11.1278 5.74594 11.2778C5.74594 11.4378 5.81094 11.5678 5.95094 11.6728C6.02594 11.7228 6.14594 11.7478 6.33094 11.7478C6.78594 11.7478 7.60094 12.1178 7.60094 12.8578V13.0728C7.25094 12.9078 6.91594 12.8278 6.59594 12.8278C5.67594 12.8278 5.21094 13.4678 5.21094 14.7378V14.7778C5.21094 15.2378 5.33094 15.5978 5.56594 15.8528C5.80094 16.1028 6.09594 16.2278 6.44594 16.2278C6.87594 16.2278 7.26594 16.0578 7.60094 15.7228V15.8678C7.60094 15.8828 7.60594 15.8978 7.61094 15.9128C7.70594 16.1228 7.86594 16.2278 8.09094 16.2278C8.30594 16.2278 8.47094 16.1178 8.56594 15.9128C8.57094 15.8978 8.57594 15.8828 8.57594 15.8678V12.8578C8.57094 11.5678 7.39594 10.8728 6.29094 10.8728ZM6.17594 14.7328C6.17594 13.6728 6.60094 13.6728 6.73594 13.6728C6.88094 13.6728 7.14594 13.7228 7.60094 13.9628V14.7428C7.38594 15.1278 7.07594 15.3178 6.65094 15.3178C6.32094 15.3178 6.17594 15.1878 6.17594 14.8928V14.7328Z" fill="white"/>
<path opacity="0.39" d="M26.2463 14.1227C25.2563 13.6877 23.8563 13.8677 23.1113 14.5277C22.3863 15.1877 22.5913 16.0627 23.5863 16.4877C24.5913 16.9177 25.9913 16.7327 26.7213 16.0827C27.4563 15.4227 27.2363 14.5477 26.2463 14.1227ZM27.2363 10.5827C27.0613 9.80271 25.9163 9.30271 24.6963 9.47271C23.4713 9.63271 22.6313 10.3877 22.8113 11.1527C22.9963 11.9177 24.1413 12.4127 25.3763 12.2527C26.5913 12.0927 27.4263 11.3377 27.2363 10.5827ZM17.5913 6.43771C17.4013 5.67771 16.2563 5.17771 15.0363 5.33771C13.8263 5.50271 12.9763 6.25271 13.1663 7.01771C13.3413 7.78771 14.4863 8.28271 15.7063 8.11271C16.9363 7.96271 17.7763 7.20271 17.5913 6.43771ZM22.7463 6.51771C21.7663 6.08771 20.3563 6.27271 19.6263 6.92271C18.8813 7.58771 19.1113 8.46271 20.0913 8.88771C21.1013 9.32271 22.4963 9.13271 23.2263 8.47771C23.9563 7.82271 23.7513 6.94771 22.7463 6.51771ZM8.64127 9.44271C9.63127 9.87271 11.0363 9.69271 11.7663 9.03271C12.5063 8.38271 12.2863 7.49771 11.3013 7.07271C10.3013 6.63771 8.90627 6.81771 8.16127 7.47271C7.43627 8.14271 7.64627 9.01771 8.64127 9.44271Z" fill="#26A8E0"/>
<path d="M14.1412 1.68778C14.8962 1.59278 15.3912 1.14278 15.2762 0.682775C15.1712 0.217775 14.4912 -0.0772247 13.7562 0.0177753C13.0062 0.117775 12.5062 0.572775 12.6162 1.03278C12.7312 1.49278 13.4062 1.77278 14.1412 1.68778Z" fill="#26A8E0"/>
<path opacity="0.65" d="M23.4461 5.90269C24.2511 6.24769 25.3711 6.10269 25.9461 5.57769C26.5361 5.05769 26.3661 4.35269 25.5711 3.99769C24.7711 3.66269 23.6461 3.81269 23.0611 4.33269C22.4861 4.85769 22.6461 5.55769 23.4461 5.90269Z" fill="#26A8E0"/>
<path d="M3.14614 4.25783C2.55114 4.00783 1.70114 4.11283 1.27114 4.50783C0.81614 4.89783 0.95114 5.42783 1.54614 5.67783C2.14614 5.93783 2.98614 5.82783 3.42114 5.43783C3.86114 5.05283 3.73114 4.51783 3.14614 4.25783Z" fill="#26A8E0"/>
<path opacity="0.65" d="M6.86109 5.50786C6.06109 5.15786 4.92609 5.30786 4.34109 5.82786C3.75609 6.36286 3.92609 7.06286 4.72109 7.40286C5.53109 7.74786 6.65109 7.60286 7.22609 7.07786C7.82109 6.55786 7.65109 5.85286 6.86109 5.50786Z" fill="#26A8E0"/>
<path opacity="0.65" d="M14.866 4.61776C15.846 4.48776 16.511 3.88776 16.356 3.27276C16.216 2.65276 15.296 2.26776 14.326 2.39776C13.341 2.52776 12.676 3.12276 12.816 3.74276C12.976 4.34776 13.886 4.74276 14.866 4.61776Z" fill="#26A8E0"/>
</g>
</svg>
