<svg width="66" height="30" viewBox="0 0 66 30" fill="none" xmlns="http://www.w3.org/2000/svg">
<path d="M4.62637 5.55261H0.559998V23.3799L0.574371 23.4141C0.764107 23.8892 1.13495 24.1403 1.64666 24.1403C2.16987 24.1403 2.54216 23.8878 2.72039 23.4113L2.73189 23.3785V16.2604H4.44383C5.65267 16.2604 6.64591 15.8053 7.39479 14.9093C8.12354 14.0418 8.49295 12.9346 8.49295 11.6177V10.1639C8.49439 7.10349 7.19355 5.55261 4.62637 5.55261ZM4.44526 14.3742H2.73189V7.42736H4.68243C5.7921 7.42736 6.33112 8.32194 6.33112 10.1624V11.6135C6.33256 13.4711 5.71448 14.3742 4.44526 14.3742Z" fill="#005194"/>
<path d="M47.7452 13.5881C47.1702 12.2355 46.0548 11.5493 44.4306 11.5493C42.7876 11.5493 41.6478 12.2341 41.0383 13.5881C40.6502 14.5069 40.4605 15.9094 40.4605 17.8726C40.4605 19.8102 40.6546 21.2569 41.0369 22.17C41.5975 23.5982 42.6626 24.3215 44.202 24.3215C45.8938 24.3215 47.0481 23.6182 47.6302 22.2356C48.0284 21.3639 48.2224 19.9371 48.2224 17.8726C48.2239 15.8951 48.0643 14.4555 47.7452 13.5881ZM42.6813 15.0177C42.9026 13.9847 43.4661 13.4839 44.4047 13.4839C45.2456 13.4839 45.7645 14.0033 45.9901 15.0776C46.0936 15.5042 46.1454 16.4188 46.1454 17.874C46.1454 19.3579 46.0951 20.2967 45.9887 20.7461C45.753 21.8418 45.2025 22.3983 44.3515 22.3983C43.1571 22.3983 42.5519 20.8759 42.5519 17.874C42.5534 16.5272 42.6008 15.4842 42.6813 15.0177Z" fill="#005194"/>
<path d="M11.8334 11.4965C10.7568 11.4965 10.5958 12.0543 10.5958 12.3868C10.5958 12.742 10.7439 13.0288 11.0615 13.2756C11.2312 13.3855 11.4841 13.434 11.8895 13.434H11.934C13.0552 13.434 15.0575 14.3457 15.0575 16.1619V16.7897C14.185 16.3674 13.347 16.1534 12.5651 16.1534C10.4018 16.1534 9.30505 17.6629 9.30505 20.6419V20.7361C9.30505 21.8176 9.58391 22.6651 10.1359 23.2543C10.6835 23.8421 11.3806 24.1403 12.2071 24.1403C13.278 24.1403 14.2353 23.698 15.0575 22.8263V23.387L15.0747 23.4255C15.299 23.9078 15.6554 24.1418 16.1643 24.1418C16.6516 24.1418 17.0109 23.9006 17.2308 23.4255L17.2481 23.387V16.1634C17.2509 13.1301 14.4595 11.4965 11.8334 11.4965ZM11.4813 20.6419C11.4813 18.0395 12.5521 18.0395 12.9043 18.0395C13.4261 18.0395 14.1505 18.2835 15.0589 18.7629V20.6876C14.5228 21.6507 13.7523 22.1186 12.703 22.1186C11.8579 22.1186 11.4798 21.7791 11.4798 21.0158V20.6419H11.4813Z" fill="#005194"/>
<path d="M34.3645 11.5493C32.713 11.5493 31.5645 12.2341 30.9507 13.5909C30.5698 14.5255 30.3772 15.9665 30.3772 17.874C30.3772 19.7816 30.5698 21.2269 30.9493 22.1714C31.5185 23.5982 32.585 24.323 34.1187 24.323C35.8019 24.323 36.9604 23.6196 37.5641 22.2328C37.9551 21.3168 38.152 19.8501 38.152 17.8755C38.152 15.9351 37.981 14.4955 37.6418 13.5924C37.0826 12.2355 35.9787 11.5493 34.3645 11.5493ZM32.6023 15.0191C32.8251 13.9861 33.3828 13.4839 34.307 13.4839C35.1666 13.4839 35.6955 14.0033 35.9241 15.0676C36.0031 15.4871 36.0405 16.4045 36.0405 17.874C36.0405 19.3721 36.0017 20.3138 35.9255 20.7418C35.6596 21.8561 35.1163 22.3983 34.2639 22.3983C33.0737 22.3983 32.47 20.8759 32.47 17.874C32.47 16.0178 32.5534 15.2845 32.6023 15.0191Z" fill="#005194"/>
<path d="M26.4603 12.0215H26.4574C25.9328 12.0714 25.582 12.3183 25.4153 12.7549L25.4024 12.7877V21.5693C24.2841 22.1286 23.6602 22.2485 23.3325 22.2485C23.035 22.2485 22.1294 22.2485 22.1294 19.7217V12.7805L22.1122 12.7434C21.898 12.2712 21.5329 12.0201 21.0384 12.0201H21.037C20.4994 12.0686 20.1602 12.2983 19.9676 12.7463L19.9518 12.782V19.7203C19.9518 22.6522 20.9723 24.1375 22.9861 24.1375C23.6847 24.1375 24.4954 23.9192 25.4009 23.4869V26.3361C25.4009 27.1251 25.2673 27.663 24.9898 27.9826C24.6635 28.3692 24.4997 28.6845 24.4997 28.9299C24.5299 29.4464 24.7785 29.8003 25.2385 29.9857L25.273 30H25.3104C26.0018 30 26.5609 29.6191 27.0209 28.8386C27.3975 28.2237 27.58 27.5474 27.58 26.7698V12.7791L27.5613 12.7406C27.3328 12.2626 26.9691 12.0215 26.4603 12.0215Z" fill="#005194"/>
<path d="M57.1429 11.1426C57.2938 11.7889 58.2684 12.2227 59.3392 12.09C60.4058 11.9502 61.1058 11.3153 60.9663 10.6433C60.7867 9.99266 59.8193 9.56749 58.7614 9.71017C57.7121 9.85427 56.9661 10.4792 57.1429 11.1426ZM63.8224 11.1911C64.6116 11.0955 65.152 10.619 65.0298 10.1196C64.9005 9.61315 64.176 9.30925 63.3668 9.41483C62.5906 9.51042 62.0516 9.99266 62.1536 10.4792C62.3031 10.98 63.029 11.2939 63.8224 11.1911ZM41.77 1.81024C42.5951 1.70751 43.1298 1.21956 42.9947 0.731614C42.884 0.237957 42.1466 -0.0745015 41.3517 0.0153839C40.5525 0.12239 40.0135 0.620327 40.1371 1.11256C40.2636 1.61335 40.9866 1.90012 41.77 1.81024ZM54.8215 15.1061C53.7506 14.6396 52.2457 14.8236 51.4364 15.5213C50.6703 16.2361 50.8902 17.1792 51.9496 17.6301C53.0348 18.0838 54.5412 17.8869 55.3346 17.1892C56.1223 16.4901 55.8895 15.5513 54.8215 15.1061ZM55.8895 11.321C55.694 10.4806 54.4564 9.96698 53.1527 10.1239C51.8375 10.3094 50.9276 11.1112 51.1173 11.9202C51.3143 12.7463 52.5519 13.2671 53.8814 13.1115C55.1967 12.9403 56.0922 12.1242 55.8895 11.321ZM54.8215 3.62649C55.4511 3.90471 56.3724 3.78914 56.8497 3.37396C57.3283 2.94165 57.1774 2.39378 56.5421 2.1013C55.8909 1.83735 54.9854 1.94721 54.5139 2.37809C54.0381 2.79755 54.1819 3.36397 54.8215 3.62649ZM51.8073 6.31592C52.6669 6.67689 53.8814 6.53279 54.4895 5.95923C55.132 5.41279 54.9523 4.65518 54.0913 4.28708C53.2274 3.91898 52.0172 4.07735 51.389 4.63806C50.7566 5.19877 50.942 5.94639 51.8073 6.31592ZM29.923 4.55246C29.2863 4.28708 28.3721 4.40407 27.9193 4.82639C27.4133 5.24158 27.5628 5.81371 28.2068 6.07623C28.8507 6.35016 29.7549 6.2346 30.2263 5.82084C30.6963 5.41136 30.5598 4.83067 29.923 4.55246ZM45.4885 6.88377C45.2859 6.0748 44.0569 5.53692 42.7445 5.71669C41.4336 5.88219 40.5209 6.69259 40.7336 7.50155C40.909 8.32907 42.1452 8.85839 43.4575 8.68148C44.7813 8.51883 45.6883 7.71271 45.4885 6.88377ZM51.0555 6.97508C49.9962 6.51281 48.4769 6.71541 47.6949 7.40881C46.9015 8.11506 47.1415 9.04387 48.1937 9.51042C49.2818 9.97269 50.7796 9.77294 51.5744 9.07098C52.3478 8.36331 52.1192 7.4345 51.0555 6.97508ZM62.4756 19.1068C61.8202 18.8457 60.8973 18.9627 60.4388 19.3807C59.9458 19.7973 60.0996 20.3652 60.7522 20.6377C61.399 20.9216 62.3031 20.7818 62.766 20.3766C63.2403 19.9628 63.1124 19.3992 62.4756 19.1068ZM59.0331 17.2862C58.1864 16.9053 56.9661 17.0622 56.3451 17.6301C55.6954 18.1951 55.8895 18.9441 56.7519 19.2994C57.6115 19.6717 58.8174 19.5219 59.4657 18.9627C60.0823 18.3962 59.894 17.6429 59.0331 17.2862ZM33.9377 5.8879C33.0709 5.51979 31.8477 5.67816 31.2138 6.2346C30.5871 6.8053 30.7711 7.56005 31.6206 7.91959C32.506 8.2934 33.6904 8.12932 34.3301 7.57289C34.9625 7.01646 34.7814 6.26456 33.9377 5.8879ZM42.5563 4.9334C43.6127 4.80357 44.3357 4.15725 44.1604 3.51093C44.0109 2.84178 43.0148 2.43516 41.9669 2.56356C40.9104 2.70481 40.2004 3.33829 40.3499 4.00886C40.5223 4.65518 41.5012 5.0775 42.5563 4.9334ZM35.8537 10.1025C36.926 10.5562 38.4309 10.3679 39.2201 9.66594C40.0135 8.9654 39.7806 8.02517 38.717 7.56576C37.6361 7.1092 36.1383 7.30181 35.3319 7.99093C34.55 8.71144 34.7814 9.64882 35.8537 10.1025Z" fill="#26A8E0"/>
</svg>
