<svg width="46" height="24" viewBox="0 0 46 24" fill="none" xmlns="http://www.w3.org/2000/svg">
<rect width="45.6308" height="24" rx="2.4" fill="white"/>
<path d="M17.8038 5.6316L12.3537 18.3947H8.79906L6.12126 8.21334C5.95937 7.58446 5.81773 7.35938 5.31859 7.08797C4.50918 6.65768 3.17365 6.25386 2 6.00231L2.08094 5.6316H7.80753C8.536 5.6316 9.19028 6.10823 9.35891 6.93571L10.7754 14.3235L14.2693 5.6316H17.8038ZM31.7324 14.2242C31.7459 10.8613 26.9839 10.6759 27.0176 9.1666C27.0243 8.70983 27.4695 8.21996 28.4408 8.10081C28.9264 8.03461 30.2552 7.99489 31.7594 8.67011L32.3462 5.96259C31.5368 5.67132 30.4913 5.3999 29.203 5.3999C25.8777 5.3999 23.5371 7.13431 23.5169 9.61675C23.4966 11.4505 25.1897 12.4765 26.4645 13.0922C27.773 13.7211 28.2115 14.1183 28.2115 14.6809C28.2047 15.5349 27.166 15.9122 26.2014 15.9255C24.5084 15.952 23.5304 15.4753 22.7479 15.1179L22.1409 17.9181C22.9233 18.2689 24.3802 18.58 25.8844 18.5999C29.4188 18.5999 31.7324 16.8854 31.7392 14.2308M40.5213 18.4013H43.6308L40.9125 5.6316H38.0391C37.3915 5.6316 36.8519 6.00231 36.6091 6.565L31.5638 18.3881H35.0915L35.793 16.4815H40.1098L40.5145 18.3881L40.5213 18.4013ZM36.771 13.8799L38.545 9.08716L39.5635 13.8799H36.771ZM22.613 5.6316L19.8273 18.3947H16.4615L19.2472 5.6316H22.613Z" fill="#1A1F71"/>
</svg>
